<svg width="241" height="180" viewBox="0 0 241 180" fill="none" xmlns="http://www.w3.org/2000/svg">
<g opacity="0.1">
<path d="M74.6164 66.9913C74.6164 65.9228 73.815 65.1213 72.7465 65.1213H71.4108C70.3422 65.1213 69.5408 65.9228 69.5408 66.9913V76.0741C69.5408 77.1427 70.3422 77.9441 71.4108 77.9441H72.4793C73.5479 77.9441 74.3493 77.1427 74.3493 76.0741V66.9913H74.6164Z" fill="#1E5D83"/>
<path d="M82.3616 66.9923C82.3616 65.9237 81.5601 65.1223 80.4916 65.1223H79.1559C78.0873 65.1223 77.2859 65.9237 77.2859 66.9923V76.0751C77.2859 77.1436 78.0873 77.9451 79.1559 77.9451H80.4916C81.5601 77.9451 82.3616 77.1436 82.3616 76.0751V66.9923Z" fill="#1E5D83"/>
<path d="M82.3635 82.4866C82.3635 81.4181 81.5621 80.6166 80.4935 80.6166H71.4108C70.3422 80.6166 69.5408 81.4181 69.5408 82.4866V94.2408C69.5408 95.3094 70.3422 96.1108 71.4108 96.1108H80.4935C81.5621 96.1108 82.3635 95.3094 82.3635 94.2408V82.4866Z" fill="#1E5D83"/>
<path d="M240.243 179.992C124.838 139.921 2.22057 174.382 0.884867 174.649L0.350586 171.978C3.55627 171.176 48.4359 147.668 116.824 147.668C169.183 147.668 238.106 174.649 238.106 174.649L240.243 179.992Z" fill="#1E5D83"/>
<path d="M237.037 96.6424L182.54 44.2829C182.006 43.7486 182.273 43.4815 181.472 43.2143L177.732 41.6115V22.3774C177.732 19.706 173.992 18.1031 171.321 18.1031H161.436C158.498 18.1031 156.895 19.706 156.895 22.3774V25.8502H154.224V28.5216H156.895V33.8644L70.6086 0.204738C69.0058 -0.329543 67.1358 0.204738 66.3344 1.54044L2.22069 94.7724C1.68641 95.5739 1.68641 96.3753 1.95355 97.1767C2.48783 97.9781 6.49494 97.9781 7.5635 97.9781L67.1358 8.75323C67.9372 7.95181 68.7387 7.41753 69.8072 7.41753C70.8758 7.41753 71.6772 7.68467 72.4786 8.48609L155.025 93.7039C155.826 94.7724 157.162 95.3067 158.498 95.3067L180.671 96.3753L154.491 99.581L74.3486 17.836C73.5472 17.0346 72.2115 16.5003 71.1429 16.5003C69.8072 16.5003 68.7387 17.3017 67.9372 18.1031L10.502 98.5124L20.3862 101.451L20.9205 165.832L28.6676 161.558V127.898L59.923 75.8055V100.115C59.923 104.122 64.1973 106.527 68.2044 106.527H85.5685C89.5756 106.527 94.117 104.122 94.117 100.115V61.9142C94.117 57.9071 89.5756 54.4342 85.5685 54.4342H73.5472L81.5614 41.0772C82.0957 40.2758 83.1642 39.7415 84.2328 39.7415C85.3014 39.7415 86.3699 40.0087 86.9042 40.8101L151.018 109.198C151.552 109.732 151.819 110.534 151.819 111.335V120.952C151.819 122.822 153.155 124.959 155.025 124.959H172.923C173.725 124.959 174.793 124.158 175.328 123.624L195.63 103.855C197.233 102.252 199.103 101.451 201.24 101.718L213.796 102.252L197.5 126.295C196.699 127.364 195.63 127.898 194.295 127.898H155.025C153.155 127.898 151.819 129.768 151.819 131.638V156.215C152.888 156.215 153.689 156.482 154.758 156.482L158.765 136.179L199.103 135.645V165.298C207.385 166.099 214.597 170.106 222.077 173.846L226.886 174.647C229.023 173.579 230.091 175.716 230.359 173.312V126.295C230.359 125.494 230.893 124.959 231.427 124.692L234.9 123.891C236.503 123.624 237.037 121.754 235.701 120.685L215.933 102.252L238.64 103.054C239.174 100.65 238.64 98.2453 237.037 96.6424ZM167.581 37.8715L162.238 35.7344V28.5216H167.581V37.8715ZM167.581 25.8502H162.238V23.1788H167.581V25.8502ZM85.5685 59.7771C86.6371 59.7771 86.3699 61.1128 86.3699 61.9142V99.0467C86.3699 99.8481 85.8357 100.382 85.0342 100.382H66.8687C66.0673 100.382 65.533 99.8481 65.533 99.0467V66.4556L70.6086 59.5099H85.5685V59.7771Z" fill="#1E5D83"/>
</g>
</svg>
