<svg xmlns="http://www.w3.org/2000/svg" width="72" height="72" fill="none"><g clip-path="url(#a)"><path fill="#fff" d="M18.18 18.322c-9.747 9.748-9.747 25.608 0 35.356 9.747 9.747 25.608 9.747 35.355 0 9.748-9.748 9.748-25.608 0-35.356-9.747-9.747-25.608-9.747-35.355 0Zm33.146 33.146c-8.53 8.53-22.407 8.53-30.936 0-8.53-8.53-8.53-22.407 0-30.936 8.529-8.53 22.407-8.53 30.936 0s8.529 22.407 0 30.936Zm-8.84-23.66c.864 0 1.563.7 1.563 1.563v11.048a1.558 1.558 0 0 1-1.562 1.563c-.864 0-1.563-.7-1.562-1.563v-7.276L30.334 43.734a1.562 1.562 0 1 1-2.21-2.21l10.59-10.59h-7.276a1.561 1.561 0 1 1 0-3.125h11.049Z"/></g><defs><clipPath id="a"><path fill="#fff" d="M.502 36 35.858.645 71.213 36 35.858 71.355z"/></clipPath></defs></svg>