<svg width="28" height="32" viewBox="0 0 28 32" fill="none" xmlns="http://www.w3.org/2000/svg">
<g filter="url(#filter0_d_1_1836)">
<path d="M23.6619 5.8578C23.6619 5.76878 23.6305 5.6822 23.5721 5.61409L20.5266 2.05703C20.462 1.98156 20.37 1.93488 20.2709 1.92714C20.172 1.91964 20.0738 1.95147 19.9983 2.01606L18.0396 3.6932L15.3791 0.586047C15.3145 0.510578 15.2225 0.463844 15.1234 0.456157C15.0245 0.448657 14.9263 0.480485 14.8508 0.545078L4.17435 9.68692C4.09888 9.75156 4.05215 9.84358 4.04446 9.94267C4.04371 9.95233 4.04366 9.96194 4.04366 9.97155H4.04333V12.6423C4.04333 12.7316 4.0753 12.8181 4.13338 12.886L7.17885 16.4431C7.25146 16.5279 7.35618 16.5741 7.46357 16.5741C7.50707 16.5741 7.55099 16.5665 7.59341 16.5508C7.63588 16.5351 7.67362 16.5116 7.70671 16.4832L7.70727 16.4839L9.66505 14.8068L9.98746 15.1832L8.07937 16.8183C7.99293 16.8924 7.94882 16.9973 7.94877 17.1028H7.94849V19.7736C7.94849 19.863 7.98041 19.9494 8.03849 20.0172L11.0826 23.5743C11.1553 23.6592 11.26 23.7054 11.3674 23.7054C11.4109 23.7054 11.4548 23.6978 11.4972 23.6822C11.5397 23.6665 11.5774 23.643 11.6105 23.6147L11.6111 23.6154L22.2875 14.4736C22.3706 14.4024 22.4185 14.2984 22.4185 14.189V11.5169H22.4181C22.4181 11.4279 22.3867 11.3413 22.3284 11.2732L21.6219 10.448L23.5312 8.81317C23.6143 8.74197 23.6622 8.638 23.6622 8.52855V5.8578H23.6619ZM20.2011 2.82911L20.2824 2.92403C20.3847 4.03089 20.0929 4.31758 19.7265 4.6773C19.4464 4.95236 19.0978 5.29473 18.9533 5.97527C18.9103 6.17767 19.0396 6.37661 19.242 6.41959C19.2683 6.42517 19.2944 6.42784 19.3202 6.42784C19.4934 6.42784 19.649 6.3071 19.6864 6.13089C19.784 5.67119 19.9904 5.46855 20.2516 5.21195C20.5711 4.89817 20.9214 4.5535 21.0222 3.78803L22.7592 5.81678L21.6399 6.77505C20.919 6.89856 20.4781 6.88319 20.1213 6.87025C19.3682 6.84316 18.9946 6.87311 18.0349 7.86845C17.8913 8.01742 17.8956 8.25461 18.0446 8.39828C18.1173 8.46836 18.2111 8.50324 18.3046 8.50324C18.4028 8.50324 18.5009 8.46489 18.5744 8.38858C19.3423 7.59213 19.5016 7.59794 20.0943 7.61922C20.2504 7.62484 20.4305 7.63113 20.6453 7.62653L12.652 14.4699L11.8374 13.5188C12.3311 12.9349 12.1213 12.3895 11.9621 11.9766C11.8889 11.7867 11.8198 11.6074 11.8014 11.4203C11.7811 11.2144 11.5977 11.0639 11.3918 11.0841C11.1858 11.1044 11.0354 11.2878 11.0556 11.4937C11.084 11.782 11.179 12.0286 11.2629 12.2462C11.3853 12.5638 11.4536 12.7417 11.3394 12.9374L10.094 11.4833L17.7266 4.94791C17.7159 6.17974 17.3988 6.47111 17.0129 6.82516C16.6866 7.12445 16.2806 7.49697 15.9963 8.34419C15.9305 8.54041 16.0361 8.7528 16.2323 8.81861C16.2718 8.83188 16.3121 8.8382 16.3516 8.8382C16.5082 8.8382 16.6542 8.73925 16.7068 8.58259C16.9296 7.91856 17.2162 7.65569 17.5196 7.37734C18.1525 6.7967 18.564 6.26252 18.4601 4.31983L20.2011 2.82911ZM9.19091 12.9652C9.1424 12.9926 9.09435 13.0192 9.0471 13.0452C8.50677 13.3429 8.10454 13.6244 7.83824 14.3707V13.6997L9.19087 12.5418V12.9652H9.19091ZM9.19091 13.8252V14.1145C9.19091 14.1486 9.1956 14.1822 9.20455 14.2145L8.47358 14.8407C8.63873 14.2375 8.87352 14.0164 9.19091 13.8252ZM9.9403 12.456L11.0343 13.7333C11.0346 13.7336 11.0348 13.7339 11.035 13.7342C11.0355 13.7349 11.0361 13.7354 11.0367 13.736L12.2364 15.1368V16.6568L9.9403 13.9761V12.456ZM7.96584 7.42708C8.07384 8.11759 8.38251 8.53258 8.62462 8.85784C8.95462 9.30105 9.09116 9.48447 8.6916 10.1828C8.5888 10.3624 8.6511 10.5914 8.83073 10.6941C8.88941 10.7277 8.9534 10.7437 9.01649 10.7437C9.14648 10.7437 9.27285 10.6759 9.34204 10.555C9.9854 9.4307 9.5818 8.88859 9.22574 8.41033C8.94524 8.03359 8.65593 7.64453 8.67674 6.81841L12.579 3.47706C12.5684 4.70931 12.2514 5.00064 11.8656 5.35464C11.5394 5.65389 11.1335 6.02636 10.8488 6.8732C10.7828 7.06938 10.8884 7.28186 11.0845 7.34781C11.1241 7.36113 11.1644 7.36745 11.204 7.36745C11.3605 7.36745 11.5065 7.26859 11.5591 7.11208C11.7824 6.44814 12.0689 6.18522 12.3723 5.90683C13.0051 5.32628 13.4165 4.79209 13.3126 2.84903L15.0536 1.35827L15.1348 1.45305C15.2372 2.55995 14.9454 2.84659 14.5791 3.20636C14.2989 3.48142 13.9503 3.8238 13.8059 4.50433C13.7629 4.70674 13.8921 4.90567 14.0946 4.94866C14.1208 4.95424 14.147 4.95691 14.1727 4.95691C14.3459 4.95691 14.5015 4.83616 14.5389 4.65995C14.6365 4.2002 14.8429 3.99756 15.1041 3.74102C15.4236 3.42723 15.7739 3.08252 15.8747 2.31705L17.4704 4.18061L16.0893 5.36317C15.5954 5.42177 15.2533 5.40949 14.9748 5.39955C14.2215 5.37217 13.8477 5.40245 12.8888 6.39761C12.7452 6.54667 12.7496 6.78386 12.8986 6.92744C12.9713 6.99752 13.065 7.03234 13.1586 7.03234C13.2568 7.0323 13.3549 6.99395 13.4284 6.91764C14.1956 6.12147 14.355 6.12705 14.9479 6.14847C15.0144 6.15086 15.0866 6.15339 15.1644 6.15517L9.32188 11.1578C9.24641 11.2225 9.19968 11.3145 9.19199 11.4136C9.19124 11.4232 9.19119 11.4328 9.19119 11.4424H9.19087V11.5553L7.5044 12.999L6.6898 12.0479C7.18401 11.4635 6.97401 10.9177 6.81463 10.5045C6.74151 10.3149 6.67246 10.1358 6.65371 9.94881C6.63309 9.74289 6.44933 9.59247 6.24351 9.61333C6.03759 9.63395 5.8874 9.81761 5.90802 10.0235C5.93685 10.3111 6.03173 10.5572 6.1154 10.7742C6.23812 11.0924 6.30651 11.2705 6.1918 11.4666L4.94633 10.0125L7.96584 7.42708ZM4.79277 12.5038V10.9851L7.08885 13.6658V15.1855L4.79277 12.5038ZM10.475 15.7524L12.3265 17.914C12.3991 17.9988 12.5038 18.045 12.6112 18.045C12.6547 18.045 12.6987 18.0374 12.7411 18.0218C12.7836 18.0061 12.8212 17.9826 12.8543 17.9543L12.8549 17.955L18.2796 13.31C18.4256 13.2666 18.5791 13.2695 18.8536 13.2793C19.0089 13.2848 19.1878 13.291 19.401 13.2865L11.4083 20.1303L10.5939 19.179C11.0879 18.5946 10.8778 18.0483 10.7185 17.6347C10.6454 17.445 10.5763 17.2658 10.5576 17.0788C10.537 16.8729 10.3531 16.7224 10.1474 16.7433C9.94148 16.764 9.79129 16.9476 9.81191 17.1535C9.84069 17.441 9.93552 17.6871 10.0192 17.9042C10.142 18.2229 10.2104 18.4013 10.096 18.5975L8.85144 17.1438L10.475 15.7524ZM8.69793 19.6353V18.1167L9.78688 19.3886C9.78843 19.3906 9.78974 19.3927 9.79129 19.3946C9.79452 19.3986 9.79818 19.402 9.80155 19.4058L10.9926 20.7971V22.3166L8.69793 19.6353ZM12.3771 21.9728C12.5779 21.2388 12.8817 21.0707 13.312 20.8334C13.7258 20.6053 14.2409 20.3214 14.7987 19.5707C14.9221 19.4045 14.8875 19.1698 14.7214 19.0464C14.5552 18.923 14.3205 18.9575 14.1971 19.1237C13.7364 19.7437 13.3368 19.964 12.9502 20.1771C12.4102 20.4748 12.0082 20.7562 11.7421 21.5018V20.8311L21.6691 12.3311V12.6813L20.6427 13.5603C20.4855 13.6949 20.4673 13.9315 20.6018 14.0886C20.6759 14.1752 20.7809 14.2196 20.8866 14.2196C20.9728 14.2196 21.0595 14.19 21.1302 14.1295L21.6691 13.6679V14.0165L12.3771 21.9728ZM21.5155 11.476L20.3945 12.4358C19.8646 12.5263 19.4856 12.5418 19.1805 12.5384L21.0526 10.9354L21.5155 11.476ZM13.6197 16.3134C13.8208 15.5784 14.1247 15.4103 14.5554 15.1732C14.9691 14.9453 15.4841 14.6617 16.0422 13.9118C16.1658 13.7457 16.1313 13.511 15.9653 13.3874C15.7993 13.2639 15.5646 13.2983 15.441 13.4643C14.9801 14.0838 14.5804 14.3039 14.1939 14.5167C13.6542 14.8139 13.2523 15.095 12.9859 15.8393V15.1707L22.9128 6.67188V7.02063L21.8853 7.89967C21.728 8.0342 21.7096 8.27074 21.8441 8.428C21.9182 8.51467 22.0233 8.55916 22.129 8.55916C22.2152 8.55916 22.3018 8.52958 22.3724 8.46916L22.9128 8.00683V8.35605L13.6197 16.3134ZM15.1492 9.10905C14.8897 8.95886 14.5791 8.92113 14.2742 9.00259C13.919 9.09766 13.6027 9.34731 13.4066 9.68739C13.2294 9.9948 13.1646 10.3457 13.2241 10.6753C13.287 11.0234 13.4885 11.3182 13.776 11.4837C13.946 11.5821 14.138 11.6323 14.3359 11.6323C14.4401 11.6323 14.546 11.6184 14.6511 11.5903C15.0064 11.4952 15.3226 11.2456 15.5188 10.9055C15.696 10.5981 15.7608 10.2473 15.7012 9.91759C15.6384 9.56974 15.4372 9.27508 15.1492 9.10905ZM14.8695 10.5311C14.7721 10.7001 14.6219 10.8223 14.4574 10.8663C14.3787 10.8873 14.2618 10.899 14.1507 10.8347C14.0184 10.7585 13.9754 10.6187 13.9616 10.542C13.9339 10.3887 13.9682 10.2136 14.0558 10.0617C14.1533 9.89275 14.3035 9.7705 14.468 9.72653C14.5026 9.7173 14.5445 9.70985 14.5901 9.70985C14.6481 9.70985 14.712 9.72194 14.7738 9.7577C14.7741 9.75784 14.7744 9.75803 14.7747 9.75817C14.9069 9.8343 14.9499 9.97417 14.9638 10.0508C14.9915 10.2041 14.9571 10.3792 14.8695 10.5311Z" fill="#1C597E"/>
</g>
<defs>
<filter id="filter0_d_1_1836" x="-2" y="0" width="32" height="32" filterUnits="userSpaceOnUse" color-interpolation-filters="sRGB">
<feFlood flood-opacity="0" result="BackgroundImageFix"/>
<feColorMatrix in="SourceAlpha" type="matrix" values="0 0 0 0 0 0 0 0 0 0 0 0 0 0 0 0 0 0 127 0" result="hardAlpha"/>
<feOffset dy="4"/>
<feGaussianBlur stdDeviation="2"/>
<feComposite in2="hardAlpha" operator="out"/>
<feColorMatrix type="matrix" values="0 0 0 0 0 0 0 0 0 0 0 0 0 0 0 0 0 0 0.25 0"/>
<feBlend mode="normal" in2="BackgroundImageFix" result="effect1_dropShadow_1_1836"/>
<feBlend mode="normal" in="SourceGraphic" in2="effect1_dropShadow_1_1836" result="shape"/>
</filter>
</defs>
</svg>
