<svg xmlns="http://www.w3.org/2000/svg" width="14" height="14" fill="none"><g fill="#1C587D" stroke="#1C587D" stroke-width=".1" clip-path="url(#a)" opacity=".5"><path d="M13.708 1.167H.292A.292.292 0 0 0 0 1.458v11.084c0 .16.13.291.292.291h13.416c.161 0 .292-.13.292-.291V1.458a.292.292 0 0 0-.292-.291Zm-6.64.583h3.889v2.188H7.068V1.75Zm-4.025 0h3.442v2.188H3.043V1.75Zm-2.46 0H2.46v2.188H.583V1.75Zm0 2.77h8.361v2.188H5.056V6.29a.292.292 0 0 0-.584 0v.418H.583V4.521Zm5.902 2.772v2.187H3.043V7.292h3.442Zm-5.902 0H2.46v2.187H.583V7.292Zm3.89 4.958H.582v-2.187h3.89v2.187Zm4.471 0H5.056v-2.187h1.72c.161 0 .292-.131.292-.292V7.29h3.889V9.48H8.823a.292.292 0 0 0 0 .584h.121v2.187Zm4.473 0h-3.89v-2.187h3.89v2.187Zm0-2.77H11.54V7.291h1.877v2.187Zm0-2.772h-3.89V4.521h3.89v2.187Zm0-2.77H11.54V1.75h1.877v2.188Z"/><path d="M7.852 9.48h-.03a.292.292 0 0 0 0 .583h.03a.292.292 0 0 0 0-.584ZM4.764 5.6c.161 0 .292-.13.292-.292V5.28a.292.292 0 0 0-.583 0v.03c0 .16.13.291.291.291Z"/></g><defs><clipPath id="a"><path fill="#fff" d="M0 0h14v14H0z"/></clipPath></defs></svg>