<svg xmlns="http://www.w3.org/2000/svg" width="54" height="40" fill="none"><g fill="#fff" opacity=".5"><path d="M16.504 14.887a.406.406 0 0 0-.416-.415h-.296a.406.406 0 0 0-.416.415v2.019c0 .237.178.415.416.415h.237a.406.406 0 0 0 .416-.415v-2.019h.059ZM18.226 14.887a.406.406 0 0 0-.416-.415h-.297a.406.406 0 0 0-.415.415v2.019c0 .237.178.415.415.415h.297a.406.406 0 0 0 .416-.415v-2.019ZM18.226 18.33a.406.406 0 0 0-.416-.415h-2.018a.406.406 0 0 0-.416.415v2.613c0 .237.178.415.416.415h2.018a.406.406 0 0 0 .416-.416V18.33ZM53.312 40C27.665 31.095.416 38.753.12 38.813L0 38.219c.712-.178 10.686-5.402 25.884-5.402 11.636 0 26.953 5.996 26.953 5.996L53.312 40Z"/><path d="M52.6 21.477 40.489 9.841c-.119-.119-.06-.178-.237-.237l-.832-.356V4.973c0-.594-.83-.95-1.425-.95H35.8c-.653 0-1.01.356-1.01.95v.772h-.593v.593h.594v1.188L15.614.046c-.356-.12-.772 0-.95.296L.416 21.062a.577.577 0 0 0-.06.534c.12.178 1.01.178 1.247.178l13.24-19.829c.177-.178.355-.297.593-.297.237 0 .415.06.593.238l18.345 18.938c.178.238.475.356.772.356l4.927.238-5.818.712-17.81-18.166a1.095 1.095 0 0 0-.712-.297c-.297 0-.535.178-.713.356L2.256 21.893l2.197.653.118 14.307 1.722-.95v-7.48l6.946-11.576v5.402c0 .89.95 1.425 1.84 1.425h3.86c.89 0 1.9-.534 1.9-1.425v-8.49c0-.89-1.01-1.662-1.9-1.662h-2.672l1.781-2.968a.73.73 0 0 1 .594-.297c.237 0 .475.06.593.237l14.249 15.198a.675.675 0 0 1 .178.476v2.137c0 .415.297.89.712.89h3.978c.178 0 .415-.178.534-.297l4.512-4.393c.356-.356.772-.534 1.247-.475l2.79.119-3.621 5.343a.846.846 0 0 1-.713.356h-8.727c-.416 0-.712.416-.712.831v5.462c.237 0 .415.06.653.06l.89-4.512 8.965-.119v6.59c1.84.178 3.443 1.068 5.105 1.9l1.069.178c.475-.238.712.237.772-.297V28.067a.4.4 0 0 1 .237-.356l.772-.178c.356-.06.475-.475.178-.713l-4.393-4.096 5.046.178c.119-.534 0-1.069-.356-1.425ZM37.164 8.417l-1.187-.476V6.338h1.187v2.078Zm0-2.672h-1.187V5.15h1.187v.594Zm-18.226 7.54c.238 0 .179.296.179.474v8.253c0 .178-.12.296-.297.296h-4.037c-.178 0-.297-.118-.297-.296v-7.243l1.128-1.544h3.325v.06Z"/></g></svg>