<svg xmlns="http://www.w3.org/2000/svg" width="50" height="50" fill="none"><rect width="50" height="50" fill="#fff" rx="25"/><path stroke="#1E5F87" stroke-linecap="round" stroke-linejoin="round" stroke-width="1.5" d="M19.167 25a5.833 5.833 0 1 0 0-11.667 5.833 5.833 0 0 0 0 11.667ZM19.167 16.976v4.382M21.358 19.166h-4.382M28.89 22.407h7.777M28.89 15.926h7.777M36.667 28.334H21.112M36.667 35H21.112"/><path fill="#217B33" d="M15.834 28.333a.833.833 0 1 1-1.667 0 .833.833 0 0 1 1.667 0ZM15.834 35a.833.833 0 1 1-1.667 0 .833.833 0 0 1 1.667 0Z"/></svg>