<svg xmlns="http://www.w3.org/2000/svg" width="275" height="52" fill="none"><path fill="#fff" d="M17.232 33.936c0 2.72-.672 4.816-2.016 6.288-1.344 1.44-3.296 2.16-5.856 2.16s-4.512-.72-5.856-2.16c-1.344-1.472-2.016-3.568-2.016-6.288V16.464c0-2.72.672-4.8 2.016-6.24C4.848 8.752 6.8 8.016 9.36 8.016s4.512.736 5.856 2.208c1.344 1.44 2.016 3.52 2.016 6.24v3.264H12.24v-3.6c0-2.208-.912-3.312-2.736-3.312-1.824 0-2.736 1.104-2.736 3.312v18.144c0 2.176.912 3.264 2.736 3.264 1.824 0 2.736-1.088 2.736-3.264v-4.8h4.992v4.464ZM35.22 8.4v4.8H29.7V42h-5.28V13.2H18.9V8.4h16.32Zm10.101 0c2.624 0 4.592.704 5.904 2.112 1.312 1.408 1.968 3.472 1.968 6.192v4.368c0 2.72-.656 4.784-1.968 6.192-1.312 1.408-3.28 2.112-5.904 2.112h-2.496V42h-5.28V8.4h7.776Zm-2.496 16.176h2.496c.864 0 1.504-.24 1.92-.72.448-.48.672-1.296.672-2.448v-5.04c0-1.152-.224-1.968-.672-2.448-.416-.48-1.056-.72-1.92-.72h-2.496v11.376Zm12.382-8.112c0-2.688.688-4.768 2.064-6.24 1.376-1.472 3.36-2.208 5.952-2.208s4.576.736 5.952 2.208c1.376 1.472 2.064 3.552 2.064 6.24v17.472c0 2.688-.688 4.768-2.064 6.24-1.376 1.472-3.36 2.208-5.952 2.208s-4.576-.736-5.952-2.208c-1.376-1.472-2.064-3.552-2.064-6.24V16.464Zm5.28 17.808c0 2.208.912 3.312 2.736 3.312 1.824 0 2.736-1.104 2.736-3.312V16.128c0-2.208-.912-3.312-2.736-3.312-1.824 0-2.736 1.104-2.736 3.312v18.144ZM88.734.912h-3.216c-.064.832-.288 1.408-.672 1.728-.384.32-.96.48-1.728.48-.736 0-1.28-.144-1.632-.432-.352-.32-.56-.912-.624-1.776h-3.264c.064 1.696.544 3.008 1.44 3.936.928.928 2.288 1.392 4.08 1.392 1.824 0 3.216-.464 4.176-1.392.96-.96 1.44-2.272 1.44-3.936ZM86.67 18.336l-2.16 8.256L80.094 42H74.67V8.4h4.704v21.264l1.92-7.392L85.614 8.4h5.808V42H86.67V18.336ZM185.043 42h-11.28v4.512h-5.136v-9.216h2.064a4.462 4.462 0 0 0 .912-1.824c.192-.672.32-1.52.384-2.544l1.2-24.528h14.784v28.896h2.304v9.216h-5.232V42Zm-7.872-9.168c-.064 1.216-.224 2.16-.48 2.832-.224.672-.56 1.216-1.008 1.632h6.912V13.2h-4.464l-.96 19.632Zm15.614-16.368c0-2.688.688-4.768 2.064-6.24 1.376-1.472 3.36-2.208 5.952-2.208s4.576.736 5.952 2.208c1.376 1.472 2.064 3.552 2.064 6.24v17.472c0 2.688-.688 4.768-2.064 6.24-1.376 1.472-3.36 2.208-5.952 2.208s-4.576-.736-5.952-2.208c-1.376-1.472-2.064-3.552-2.064-6.24V16.464Zm5.28 17.808c0 2.208.912 3.312 2.736 3.312 1.824 0 2.736-1.104 2.736-3.312V16.128c0-2.208-.912-3.312-2.736-3.312-1.824 0-2.736 1.104-2.736 3.312v18.144ZM227.032 8.4h7.344V42h-4.992V17.904L225.736 42h-4.992l-3.936-23.76V42H212.2V8.4h7.344l3.888 23.856 3.6-23.856Zm15.937 25.872c0 2.176.912 3.264 2.736 3.264 1.824 0 2.736-1.088 2.736-3.264V26.88c0-2.208-.912-3.312-2.736-3.312-1.824 0-2.736 1.104-2.736 3.312v1.008h-4.992l.96-19.488h13.92v4.8h-9.168l-.432 8.016c.992-1.632 2.528-2.448 4.608-2.448 1.92 0 3.376.656 4.368 1.968.992 1.312 1.488 3.216 1.488 5.712v7.488c0 2.72-.672 4.816-2.016 6.288-1.344 1.44-3.296 2.16-5.856 2.16s-4.512-.72-5.856-2.16c-1.344-1.472-2.016-3.568-2.016-6.288v-2.784h4.992v3.12Zm24.455-17.616c0-1.44-.24-2.432-.72-2.976-.448-.576-1.12-.864-2.016-.864-1.824 0-2.736 1.104-2.736 3.312v2.16h-4.992v-1.824c0-2.72.672-4.8 2.016-6.24 1.344-1.472 3.296-2.208 5.856-2.208s4.512.736 5.856 2.208c1.344 1.44 2.016 3.52 2.016 6.24v.864c0 1.824-.304 3.312-.912 4.464-.608 1.12-1.536 1.936-2.784 2.448 2.464 1.088 3.696 3.44 3.696 7.056v2.64c0 2.72-.672 4.816-2.016 6.288-1.344 1.44-3.296 2.16-5.856 2.16s-4.512-.72-5.856-2.16c-1.344-1.472-2.016-3.568-2.016-6.288v-2.784h4.992v3.12c0 2.208.912 3.312 2.736 3.312.896 0 1.568-.272 2.016-.816.48-.576.72-1.568.72-2.976v-2.64c0-1.536-.272-2.624-.816-3.264-.544-.672-1.424-1.008-2.64-1.008h-1.776v-4.8h2.064c1.056 0 1.84-.272 2.352-.816.544-.544.816-1.456.816-2.736v-1.872ZM118.623 20.603a.507.507 0 0 0-.519-.52h-.371a.507.507 0 0 0-.519.52v2.522c0 .297.222.52.519.52h.297a.507.507 0 0 0 .519-.52v-2.522h.074ZM120.775 20.603a.507.507 0 0 0-.52-.52h-.37a.507.507 0 0 0-.52.52v2.522c0 .297.223.52.52.52h.37c.297 0 .52-.223.52-.52v-2.522ZM120.775 24.905a.508.508 0 0 0-.52-.519h-2.522a.507.507 0 0 0-.519.52v3.264c0 .296.222.519.519.519h2.522c.297 0 .52-.223.52-.52v-3.264ZM164.617 51.983c-32.047-11.128-66.098-1.558-66.469-1.484L98 49.757c.89-.222 13.353-6.75 32.344-6.75 14.54 0 33.68 7.492 33.68 7.492l.593 1.484Z"/><path fill="#fff" d="m163.727 28.837-15.133-14.54c-.149-.148-.075-.222-.297-.296l-1.039-.446v-5.34c0-.743-1.038-1.188-1.78-1.188h-2.745c-.816 0-1.261.445-1.261 1.187v.965h-.742v.741h.742v1.484L117.51 2.057c-.445-.149-.964 0-1.186.37L98.519 28.319c-.148.223-.148.445-.074.668.149.222 1.261.222 1.558.222l16.543-24.777c.223-.223.445-.371.742-.371s.519.074.742.297l22.923 23.664c.222.297.593.445.964.445l6.157.297-7.27.89-22.255-22.7a1.367 1.367 0 0 0-.89-.37c-.371 0-.668.222-.89.444l-15.95 22.33 2.745.816.148 17.878 2.152-1.187v-9.347l8.679-14.466v6.75c0 1.113 1.187 1.781 2.3 1.781h4.822c1.113 0 2.374-.668 2.374-1.78V19.193c0-1.112-1.261-2.077-2.374-2.077h-3.338l2.225-3.709c.148-.223.445-.37.742-.37s.593.073.742.296l17.804 18.99c.148.15.222.372.222.594v2.671c0 .52.371 1.113.891 1.113h4.97c.223 0 .519-.223.668-.371l5.638-5.49c.445-.445.964-.667 1.557-.593l3.487.148-4.525 6.677a1.058 1.058 0 0 1-.89.445h-10.905c-.52 0-.891.52-.891 1.038v6.825c.297 0 .52.075.816.075l1.113-5.639 11.202-.148v8.235c2.3.222 4.303 1.335 6.38 2.373l1.335.223c.594-.297.89.297.965-.37V37.071a.5.5 0 0 1 .296-.445l.965-.223c.445-.074.593-.593.222-.89l-5.489-5.119 6.305.223c.149-.668 0-1.336-.445-1.78Zm-19.288-16.32-1.483-.594V9.92h1.483v2.597Zm0-3.338h-1.483v-.742h1.483v.742Zm-22.774 9.42c.297 0 .222.372.222.594v10.312c0 .223-.148.37-.371.37h-5.044c-.223 0-.371-.148-.371-.37v-9.05l1.409-1.93h4.155v.075Z"/></svg>