<svg xmlns="http://www.w3.org/2000/svg" width="14" height="14" fill="none"><path fill="#1C587D" stroke="#1C587D" stroke-width=".3" d="M13.596 5.95 7.491.83a.763.763 0 0 0-.982 0L.404 5.95a1.138 1.138 0 0 0-.14 1.599l.066.078a1.136 1.136 0 0 0 1.598.14l.333-.279v5.071a.792.792 0 0 0 .791.792h8.118a.793.793 0 0 0 .791-.792V7.674l.111.093a1.136 1.136 0 0 0 1.598-.14l.066-.078a1.138 1.138 0 0 0-.14-1.599Zm-2.29 6.61a.136.136 0 0 1-.136.134H3.052a.135.135 0 0 1-.135-.135V6.937L7 3.512l4.305 3.612v5.435Zm1.927-5.433-.066.078a.485.485 0 0 1-.673.06L7.288 2.897a.448.448 0 0 0-.576 0L1.506 7.264a.485.485 0 0 1-.674-.059l-.065-.078a.482.482 0 0 1 .059-.674L6.93 1.331a.106.106 0 0 1 .138 0l6.105 5.122a.482.482 0 0 1 .06.674Z" opacity=".5"/></svg>