<svg xmlns="http://www.w3.org/2000/svg" width="14" height="14" fill="none"><g clip-path="url(#a)" opacity=".5"><path fill="#1C587D" stroke="#1C587D" stroke-width=".1" d="M13.59 3.013h-.025c-.404 0-.797-.186-1.076-.51a1.445 1.445 0 0 0-2.192 0c-.279.324-.671.51-1.076.51h-.049c-.405 0-.797-.186-1.076-.51a1.444 1.444 0 0 0-2.192 0c-.28.324-.671.51-1.076.51H4.78c-.405 0-.797-.186-1.076-.51a1.445 1.445 0 0 0-2.192 0c-.28.324-.672.51-1.076.51H.41a.41.41 0 0 0-.41.41V13.5c0 .226.184.41.41.41h.025c.644 0 1.262-.29 1.698-.796a.625.625 0 0 1 .948 0 2.247 2.247 0 0 0 1.698.796h.049c.644 0 1.263-.29 1.698-.796a.625.625 0 0 1 .948 0 2.247 2.247 0 0 0 1.698.796h.049c.644 0 1.263-.29 1.698-.796a.625.625 0 0 1 .948 0 2.247 2.247 0 0 0 1.698.796h.025a.41.41 0 0 0 .41-.41V3.424a.41.41 0 0 0-.41-.41Zm-2.671.025a.625.625 0 0 1 .948 0c.348.404.812.67 1.313.76v4.196a1.47 1.47 0 0 1-.69-.453 1.445 1.445 0 0 0-2.193 0c-.189.22-.43.375-.69.453V3.8c.5-.091.965-.357 1.312-.761Zm-4.393 0a.625.625 0 0 1 .948 0c.348.404.812.67 1.312.76v4.196a1.471 1.471 0 0 1-.69-.453 1.445 1.445 0 0 0-2.192 0c-.189.22-.43.375-.69.453V3.8c.5-.091.964-.357 1.312-.761Zm-4.393 0a.625.625 0 0 1 .948 0c.347.404.812.67 1.312.76v4.196a1.471 1.471 0 0 1-.69-.453 1.445 1.445 0 0 0-2.192 0c-.19.22-.43.375-.69.453V3.8c.5-.091.964-.357 1.312-.761Zm1.57 9.541a1.445 1.445 0 0 0-2.192 0c-.189.22-.43.376-.69.454V8.837c.5-.091.964-.357 1.312-.76a.625.625 0 0 1 .948 0c.347.403.812.669 1.312.76v4.196a1.471 1.471 0 0 1-.69-.454Zm4.393 0a1.445 1.445 0 0 0-2.192 0c-.189.22-.43.376-.69.454V8.837c.5-.091.964-.357 1.312-.76a.625.625 0 0 1 .948 0c.348.403.812.669 1.312.76v4.196a1.471 1.471 0 0 1-.69-.454Zm5.084.454a1.471 1.471 0 0 1-.69-.454 1.445 1.445 0 0 0-2.193 0c-.189.22-.43.376-.69.454V8.837c.5-.091.965-.357 1.312-.76a.625.625 0 0 1 .948 0c.348.403.812.669 1.313.76v4.196Z"/></g><defs><clipPath id="a"><path fill="#fff" d="M0 0h14v14H0z"/></clipPath></defs></svg>