<svg xmlns="http://www.w3.org/2000/svg" width="50" height="50" fill="none"><rect width="50" height="50" fill="#fff" rx="25"/><path stroke="#1E5F87" stroke-linecap="round" stroke-linejoin="round" stroke-width="1.5" d="M18.248 22.862a3.611 3.611 0 1 1-5.107 5.108 3.611 3.611 0 0 1 5.107-5.108ZM32.691 15.64a3.612 3.612 0 1 1-5.107 5.108 3.612 3.612 0 0 1 5.107-5.108ZM32.691 30.084a3.612 3.612 0 1 1-5.107 5.107 3.612 3.612 0 0 1 5.107-5.107ZM18.908 23.806l8.017-4.009M18.908 27.029l8.017 4.008"/></svg>