<svg xmlns="http://www.w3.org/2000/svg" width="30" height="30" fill="none"><path fill="#1F5C82" d="M25.91 0H4.09A4.09 4.09 0 0 0 0 4.09v21.82A4.09 4.09 0 0 0 4.09 30h21.82c2.258 0 4.09-1.832 4.09-4.09V4.09A4.09 4.09 0 0 0 25.91 0Z"/><path fill="#fff" d="m23.172 7.756-.31.112-16.838 6.067a.564.564 0 0 0 .05 1.09l4.358 1.194.813 2.386.813 2.386a.773.773 0 0 0 1.248.278l2.252-2.127 4.421 2.998c.54.369 1.31.096 1.449-.511l2.928-12.94c.144-.64-.531-1.167-1.184-.933Zm-2.15 2.872-7.607 6.218-.358.293a.387.387 0 0 0-.143.252l-.08.662-.22 1.858a.086.086 0 0 1-.14.072.085.085 0 0 1-.03-.059l-.62-1.856-.639-1.9a.385.385 0 0 1 .184-.456l7.916-4.537 1.49-.852c.217-.127.438.148.247.305Z"/></svg>