<svg xmlns="http://www.w3.org/2000/svg" width="30" height="30" fill="none"><g clip-path="url(#a)"><path fill="#1F5C81" d="M25.91 0H4.09A4.09 4.09 0 0 0 0 4.09v21.82A4.09 4.09 0 0 0 4.09 30h21.82c2.258 0 4.09-1.832 4.09-4.09V4.09A4.09 4.09 0 0 0 25.91 0Z"/><path fill="#fff" d="M23.645 20.36c-.436.06-2.57 0-2.68 0a2.097 2.097 0 0 1-1.482-.587c-.45-.433-.852-.91-1.292-1.364a3.587 3.587 0 0 0-.421-.38c-.351-.271-.699-.21-.864.205a8.05 8.05 0 0 0-.27 1.368c-.029.42-.294.682-.765.711-.291.015-.583.02-.871.014a6.648 6.648 0 0 1-3.015-.745 8.213 8.213 0 0 1-2.58-2.255C8.27 15.874 7.36 14.279 6.55 12.634c-.043-.082-.875-1.851-.895-1.934-.075-.28 0-.548.23-.64.147-.056 2.888 0 2.934 0a.96.96 0 0 1 .92.662 14.284 14.284 0 0 0 2.06 3.61c.12.146.26.275.417.382.223.151.434.098.527-.159.109-.357.173-.726.19-1.1.016-.739 0-1.226-.04-1.965-.028-.473-.195-.89-.894-1.022-.214-.038-.233-.215-.095-.392.288-.369.682-.427 1.123-.449.658-.037 1.316-.012 1.974 0h.143c.287 0 .572.028.852.087a.784.784 0 0 1 .626.7c.034.186.048.375.043.565-.017.808-.057 1.614-.065 2.422-.008.32.021.64.087.953.094.43.389.537.682.227.38-.401.728-.831 1.041-1.285a13.002 13.002 0 0 0 1.364-2.651c.19-.48.34-.585.852-.585h2.908c.173-.003.345.02.511.068a.443.443 0 0 1 .305.572c-.143.637-.487 1.18-.852 1.704-.591.839-1.215 1.655-1.82 2.48-.077.11-.147.223-.21.341-.228.41-.211.64.12.984.528.542 1.092 1.051 1.602 1.61.374.407.712.845 1.009 1.311.373.578.143 1.13-.553 1.23Z"/></g><defs><clipPath id="a"><rect width="30" height="30" fill="#fff" rx="5"/></clipPath></defs></svg>