<svg xmlns="http://www.w3.org/2000/svg" width="16" height="17" fill="none"><g clip-path="url(#a)"><g clip-path="url(#b)"><path fill="#279F87" fill-rule="evenodd" d="M8 .5c2.13 0 4.131.826 5.636 2.323C15.16 4.342 16 6.333 16 8.432a7.837 7.837 0 0 1-2.356 5.604A7.983 7.983 0 0 1 8 16.358h-.003a8.024 8.024 0 0 1-3.596-.853l-4.38.995.953-4.326A7.884 7.884 0 0 1 0 8.43v-.004a7.846 7.846 0 0 1 2.355-5.604A7.982 7.982 0 0 1 8 .5ZM5.472 4.933h.35c.131.006.276.016.413.32.094.209.252.6.377.91.09.223.163.404.182.442.046.09.076.197.016.319a4.25 4.25 0 0 0-.035.07c-.04.084-.071.15-.144.234a5.489 5.489 0 0 1-.285.3c-.092.09-.187.189-.08.371.107.183.484.799 1.028 1.282a4.806 4.806 0 0 0 1.349.854l.117.053c.183.092.29.076.396-.045.107-.122.466-.543.588-.725.122-.183.244-.153.412-.092.16.058.98.467 1.216.585l.032.015.1.05c.128.06.214.102.25.163.046.076.046.44-.106.866-.153.426-.9.836-1.235.866a3.473 3.473 0 0 0-.098.01c-.31.037-.701.083-2.098-.465-1.72-.676-2.853-2.349-3.087-2.694-.019-.028-.032-.048-.04-.057l-.001-.003c-.1-.131-.745-.991-.745-1.881 0-.84.414-1.28.604-1.482.014-.013.026-.026.036-.038a.674.674 0 0 1 .488-.228Z" clip-rule="evenodd"/></g></g><defs><clipPath id="a"><path fill="#fff" d="M0 .5h16v16H0z"/></clipPath><clipPath id="b"><path fill="#fff" d="M0 .5h16v16H0z"/></clipPath></defs></svg>