<svg xmlns="http://www.w3.org/2000/svg" width="30" height="30" fill="none"><path fill="#1F5C81" d="M24.634 29.488a90.777 90.777 0 0 1-19.26 0 5.466 5.466 0 0 1-4.862-4.854 90.777 90.777 0 0 1 0-19.26A5.466 5.466 0 0 1 5.366.511a90.777 90.777 0 0 1 19.26 0 5.466 5.466 0 0 1 4.862 4.854 90.777 90.777 0 0 1 0 19.26 5.466 5.466 0 0 1-4.854 4.862Z"/><path fill="#fff" d="M21.613 8.386A9.301 9.301 0 0 0 6.07 17.52c.316 1.089.518 2.23.29 3.34l-.634 3.077a.355.355 0 0 0 .056.278.36.36 0 0 0 .382.148l2.936-.696c1.137-.27 2.32-.082 3.447.226a9.3 9.3 0 0 0 9.066-15.507Zm-1.464 11.686a7.284 7.284 0 0 1-8.39 1.363l-.172-.085a1.492 1.492 0 0 0-1.005-.115l-2.32.55a.023.023 0 0 1-.027-.028l.453-2.203a2.03 2.03 0 0 0-.177-1.327 7.281 7.281 0 1 1 11.638 1.845Z"/><path fill="#fff" d="M19.893 17.946c-.353.555-.91 1.235-1.61 1.404-1.228.297-3.111.01-5.455-2.175l-.029-.025c-2.06-1.911-2.596-3.501-2.466-4.762.071-.716.668-1.364 1.17-1.787a.67.67 0 0 1 1.049.24l.758 1.705a.667.667 0 0 1-.083.682l-.384.498a.66.66 0 0 0-.06.736c.215.377.73.93 1.301 1.444.641.579 1.352 1.11 1.802 1.29a.651.651 0 0 0 .714-.15l.445-.448a.682.682 0 0 1 .664-.171l1.802.511a.682.682 0 0 1 .382 1.008Z"/></svg>