<svg xmlns="http://www.w3.org/2000/svg" width="14" height="15" fill="none"><g clip-path="url(#a)"><path fill="#1C587D" d="m9.378 8.937 3.763 3.815-.012-2.163c-.004-.18.136-.337.313-.333h.225c.177.005.323.112.327.292l.009 3.222c0 .003-.012.005-.012.009l.017.163c.002.09-.019.171-.076.229a.299.299 0 0 1-.224.091l-.16-.004-.009-.001-3.137.014a.34.34 0 0 1-.327-.334v-.228a.362.362 0 0 1 .367-.333l2.067-.006-3.75-3.802a.453.453 0 0 1 0-.631.432.432 0 0 1 .619 0ZM4.636 5.344.873 1.541l.012 2.15c.004.181-.136.338-.313.334H.334C.157 4.02.01 3.912.007 3.731L-.003.511C-.002.508.01.506.01.502L-.008.339C-.01.25.012.167.07.11A.3.3 0 0 1 .293.019l.16.004h.009L3.612.01a.342.342 0 0 1 .328.334v.229a.363.363 0 0 1-.367.333L1.505.91l3.75 3.802c.17.174.17.457 0 .63a.431.431 0 0 1-.619.001ZM14.003.511l-.009 3.222c-.004.18-.15.287-.327.292h-.224c-.177.004-.317-.153-.314-.333l.013-2.163-3.764 3.815a.431.431 0 0 1-.619 0 .453.453 0 0 1 0-.631L12.51.912 10.442.906a.362.362 0 0 1-.368-.333v-.23c.005-.18.151-.329.328-.333l3.137.014.01-.001.159-.004a.3.3 0 0 1 .224.091c.057.058.078.139.076.23l-.017.162c0 .004.012.006.012.009ZM1.505 13.37l2.068.005c.177-.004.34.12.368.333v.23a.341.341 0 0 1-.328.333l-3.151-.014-.01.002-.16.003a.299.299 0 0 1-.223-.09c-.058-.059-.079-.14-.077-.23l.018-.163c0-.004-.012-.006-.012-.01l.009-3.22c.004-.181.15-.288.327-.292h.238c.177-.005.317.152.313.332L.873 12.74l3.763-3.803a.431.431 0 0 1 .619 0c.17.174.17.457 0 .631l-3.75 3.802Z" opacity=".5"/></g><defs><clipPath id="a"><path fill="#fff" d="M0 14.28h14V0H0z"/></clipPath></defs></svg>