<svg width="32" height="24" viewBox="0 0 32 24" fill="none" xmlns="http://www.w3.org/2000/svg">
<path d="M9.9025 8.93245C9.9025 8.78997 9.79564 8.68311 9.65316 8.68311H9.47505C9.33257 8.68311 9.22571 8.78997 9.22571 8.93245V10.1436C9.22571 10.286 9.33257 10.3929 9.47505 10.3929H9.61754C9.76002 10.3929 9.86688 10.286 9.86688 10.1436V8.93245H9.9025Z" fill="#1F5D83"/>
<path d="M10.9355 8.93245C10.9355 8.78997 10.8287 8.68311 10.6862 8.68311H10.5081C10.3656 8.68311 10.2587 8.78997 10.2587 8.93245V10.1436C10.2587 10.286 10.3656 10.3929 10.5081 10.3929H10.6862C10.8287 10.3929 10.9355 10.286 10.9355 10.1436V8.93245Z" fill="#1F5D83"/>
<path d="M10.9355 10.9984C10.9355 10.8559 10.8286 10.749 10.6862 10.749H9.47505C9.33257 10.749 9.22571 10.8559 9.22571 10.9984V12.5657C9.22571 12.7082 9.33257 12.815 9.47505 12.815H10.6862C10.8286 12.815 10.9355 12.7082 10.9355 12.5657V10.9984Z" fill="#1F5D83"/>
<path d="M31.9873 24C16.5992 18.6569 0.249345 23.252 0.0712413 23.2876L0 22.9314C0.427448 22.8246 6.41172 19.6899 15.5306 19.6899C22.5123 19.6899 31.7024 23.2876 31.7024 23.2876L31.9873 24Z" fill="#1F5D83"/>
<path d="M31.5599 12.8864L24.2933 5.90471C24.222 5.83347 24.2576 5.79785 24.1508 5.76223L23.6521 5.5485V2.98381C23.6521 2.62761 23.1534 2.41388 22.7972 2.41388H21.4792C21.0874 2.41388 20.8737 2.62761 20.8737 2.98381V3.44688H20.5175V3.80309H20.8737V4.5155L9.36821 0.0272999C9.15449 -0.0439414 8.90515 0.0272999 8.79828 0.205403L0.249326 12.637C0.178085 12.7439 0.178085 12.8507 0.213705 12.9576C0.284947 13.0645 0.819256 13.0645 0.961739 13.0645L8.90515 1.16716C9.01201 1.0603 9.11887 0.989058 9.26135 0.989058C9.40383 0.989058 9.5107 1.02468 9.61756 1.13154L20.6243 12.4945C20.7312 12.637 20.9093 12.7083 21.0874 12.7083L24.0439 12.8507L20.5531 13.2782L9.8669 2.37826C9.76004 2.2714 9.58194 2.20016 9.43946 2.20016C9.26135 2.20016 9.11887 2.30702 9.01201 2.41388L1.35357 13.1357L2.67153 13.5275L2.74277 22.1121L3.77577 21.5422V17.054L7.94339 10.1079V13.3494C7.94339 13.8837 8.51332 14.2043 9.04763 14.2043H11.363C11.8973 14.2043 12.5028 13.8837 12.5028 13.3494V8.25567C12.5028 7.72136 11.8973 7.25829 11.363 7.25829H9.76004L10.8287 5.47726C10.8999 5.3704 11.0424 5.29916 11.1849 5.29916C11.3273 5.29916 11.4698 5.33478 11.5411 5.44164L20.09 14.5605C20.1613 14.6318 20.1969 14.7386 20.1969 14.8455V16.1278C20.1969 16.3772 20.375 16.6621 20.6243 16.6621H23.0109C23.1178 16.6621 23.2603 16.5553 23.3315 16.484L26.0387 13.8481C26.2524 13.6344 26.5017 13.5275 26.7867 13.5631L28.4609 13.6344L26.288 16.8402C26.1812 16.9827 26.0387 17.054 25.8606 17.054H20.6243C20.375 17.054 20.1969 17.3033 20.1969 17.5527V20.8298C20.3394 20.8298 20.4462 20.8654 20.5887 20.8654L21.123 18.1582L26.5017 18.087V22.0409C27.606 22.1477 28.5677 22.682 29.5651 23.1807L30.2063 23.2876C30.4913 23.1451 30.6337 23.4301 30.6694 23.1095V16.8402C30.6694 16.7334 30.7406 16.6621 30.8118 16.6265L31.2749 16.5197C31.4886 16.484 31.5599 16.2347 31.3818 16.0922L28.7458 13.6344L31.7736 13.7413C31.8448 13.4207 31.7736 13.1001 31.5599 12.8864ZM22.2985 5.04981L21.5861 4.76485V3.80309H22.2985V5.04981ZM22.2985 3.44688H21.5861V3.09068H22.2985V3.44688ZM11.363 7.97071C11.5055 7.97071 11.4698 8.14881 11.4698 8.25567V13.2069C11.4698 13.3138 11.3986 13.385 11.2917 13.385H8.86952C8.76266 13.385 8.69142 13.3138 8.69142 13.2069V8.86122L9.36821 7.93508H11.363V7.97071Z" fill="#1F5D83"/>
</svg>
